# Blender v2.79 (sub 0) OBJ File: 'Road-3.blend'
# www.blender.org
mtllib Road-3.mtl
o Plane.003
v 7.000000 -0.500000 -7.000000
v 7.000000 -0.500000 7.000000
v 7.000001 -0.500000 9.999999
v -7.000000 -0.500000 -7.000000
v -10.000001 -0.500000 -6.999999
v -7.000000 -0.500000 7.000000
v -9.999999 -0.500000 7.000001
v -6.999999 -0.500000 10.000001
v 9.999999 0.000000 -10.000001
v 6.999999 0.000000 -10.000001
v 7.000000 0.000000 -7.000000
v 9.999999 0.000000 -7.000001
v 7.000000 0.000000 7.000000
v 10.000001 0.000000 6.999999
v 7.000001 0.000000 9.999999
v 10.000001 0.000000 9.999999
v -7.000001 0.000000 -9.999999
v -7.000000 0.000000 -7.000000
v -10.000001 0.000000 -9.999999
v -10.000001 0.000000 -6.999999
v -9.999999 0.000000 7.000001
v -7.000000 0.000000 7.000000
v -9.999999 0.000000 10.000001
v -6.999999 0.000000 10.000001
vt 0.977716 0.939250
vt 0.894531 0.939250
vt 0.894531 0.925386
vt 0.977716 0.925386
vt 0.811347 0.939250
vt 0.811347 0.925386
vt 0.848395 0.938644
vt 0.923050 0.938644
vt 0.923050 0.951087
vt 0.848395 0.951086
vt 1.000000 0.838281
vt 0.850000 0.838281
vt 0.850000 0.150000
vt 1.000000 0.150000
vt 0.153906 0.150000
vt 0.153906 0.000000
vt 0.850000 0.000000
vt 0.153906 0.838281
vt 0.011719 0.857812
vt 0.138281 0.861719
vt 0.142187 0.988281
vt 0.011719 0.988281
vt 0.850000 0.861719
vt 0.850000 0.988281
vt 1.000000 0.861719
vt 1.000000 0.988281
vt 0.011719 0.150000
vt 0.138281 0.150000
vt 0.011719 0.007812
vt 0.138281 0.007812
vt 0.858578 0.008578
vt 0.991422 0.008578
vt 0.991422 0.141422
vt 0.858578 0.141422
vt 0.151608 0.938644
vt 0.500005 0.938644
vt 0.500005 0.951086
vt 0.151608 0.951087
vt 0.076950 0.938644
vt 0.076950 0.951087
vn 1.0000 0.0000 -0.0000
vn -0.0000 0.0000 -1.0000
vn -1.0000 0.0000 0.0000
vn 0.0000 1.0000 0.0000
vn 0.0000 0.0000 1.0000
usemtl Material
s off
f 8/1/1 6/2/1 22/3/1 24/4/1
f 6/2/2 7/5/2 21/6/2 22/3/2
f 2/7/3 3/8/3 15/9/3 13/10/3
f 3/11/4 2/12/4 6/13/4 8/14/4
f 4/15/4 5/16/4 7/17/4 6/13/4
f 2/12/4 1/18/4 4/15/4 6/13/4
f 10/19/4 11/20/4 12/21/4 9/22/4
f 12/21/4 11/20/4 13/23/4 14/24/4
f 14/24/4 13/23/4 15/25/4 16/26/4
f 11/20/4 10/19/4 17/27/4 18/28/4
f 18/28/4 17/27/4 19/29/4 20/30/4
f 21/31/4 23/32/4 24/33/4 22/34/4
f 4/35/5 1/36/5 11/37/5 18/38/5
f 1/36/3 2/7/3 13/10/3 11/37/3
f 5/39/5 4/35/5 18/38/5 20/40/5
