# Blender v2.79 (sub 0) OBJ File: 'Water.blend'
# www.blender.org
mtllib Water.mtl
o Plane.006
v -10.000000 0.010132 -10.000000
v -10.000000 0.010132 10.000000
v 10.000000 0.010132 10.000000
v 10.000000 0.010132 -10.000000
v -10.000000 -3.989868 -10.000000
v -10.000000 -3.989868 10.000000
v 10.000000 -3.989868 10.000000
v 10.000000 -3.989868 -10.000000
v -10.000000 -10.989868 -10.000000
v -10.000000 -10.989868 10.000000
v 10.000000 -10.989868 10.000000
v 10.000000 -10.989868 -10.000000
vt 0.639309 0.836465
vt 0.639309 0.644224
vt 0.831550 0.644224
vt 0.831550 0.836465
vt 0.697090 0.326831
vt 0.504849 0.326831
vt 0.504849 0.259547
vt 0.697090 0.259547
vt 0.639309 0.874913
vt 0.447068 0.874913
vt 0.447068 0.836465
vt 0.254828 0.874913
vt 0.254828 0.836465
vt 0.831550 0.874913
vt 0.062587 0.874913
vt 0.062587 0.836465
vt 0.312609 0.259547
vt 0.120368 0.259547
vt 0.120368 0.067306
vt 0.312608 0.067306
vt 0.312609 0.326831
vt 0.120368 0.326831
vt 0.889331 0.326831
vt 0.889331 0.259547
vn 0.0000 1.0000 0.0000
vn 1.0000 0.0000 0.0000
vn 0.0000 0.0000 1.0000
vn -1.0000 0.0000 0.0000
vn 0.0000 0.0000 -1.0000
vn 0.0000 -1.0000 0.0000
usemtl None
s off
f 2/1/1 3/2/1 4/3/1 1/4/1
f 8/5/2 7/6/2 11/7/2 12/8/2
f 2/1/3 6/9/3 7/10/3 3/11/3
f 3/11/2 7/10/2 8/12/2 4/13/2
f 1/4/4 5/14/4 6/9/4 2/1/4
f 4/13/5 8/12/5 5/15/5 1/16/5
f 10/17/6 9/18/6 12/19/6 11/20/6
f 6/21/4 5/22/4 9/18/4 10/17/4
f 5/23/5 8/5/5 12/8/5 9/24/5
f 7/6/3 6/21/3 10/17/3 11/7/3
